<svg width="161" height="33" viewBox="0 0 161 33" fill="none" xmlns="http://www.w3.org/2000/svg">
<path d="M5.81497 26.4263V3.34028L2.17686 4.71586C1.12489 5.11362 0 4.33633 0 3.21168C0 2.5497 0.405651 1.95536 1.02211 1.71413L5.40256 0H7.32045C8.42502 0 9.32045 0.895431 9.32045 2V26.4263H12.2301C13.1058 26.4263 13.8157 27.1361 13.8157 28.0118C13.8157 28.8875 13.1058 29.5974 12.2301 29.5974H1.99799C1.1223 29.5974 0.412409 28.8875 0.412409 28.0118C0.412409 27.1361 1.1223 26.4263 1.99798 26.4263H5.81497Z" transform="translate(21.1846 1.642)" fill="#2D3142"/>
<mask id="mask0" mask-type="alpha" maskUnits="userSpaceOnUse" x="0" y="0" width="16" height="33">
<path d="M0 7.8351C0 3.50789 3.42152 0 7.64218 0C11.8628 0 15.2844 3.5079 15.2844 7.83511V25.1649C15.2844 29.4921 11.8628 33 7.64218 33C3.42152 33 0 29.4921 0 25.1649V7.8351Z" fill="#C4C4C4"/>
</mask>
<g mask="url(#mask0)">
<path fill-rule="evenodd" clip-rule="evenodd" d="M12.4978 24.5935V7.83511C12.4978 5.08571 10.3239 2.85689 7.64218 2.85689C4.96049 2.85689 2.78655 5.08571 2.78655 7.8351V24.5935C2.78655 27.3429 4.96049 29.5717 7.64218 29.5717C10.3239 29.5717 12.4978 27.3429 12.4978 24.5935ZM7.64218 0C3.42152 0 0 3.50789 0 7.8351V24.5935C0 28.9207 3.42152 32.4286 7.64218 32.4286C11.8628 32.4286 15.2844 28.9207 15.2844 24.5935V7.83511C15.2844 3.5079 11.8628 0 7.64218 0Z" transform="translate(0 0.571381)" fill="#2D3142"/>
<path fill-rule="evenodd" clip-rule="evenodd" d="M15.2844 17.8202C13.1482 19.3831 10.5331 20.3025 7.70872 20.3025C4.8253 20.3025 2.16039 19.3443 0 17.7215V7.8351C0 3.50789 3.42141 0 7.64205 0C11.863 0 15.2844 3.5079 15.2844 7.83511V17.8202Z" transform="translate(0 0.139313)" fill="#FF4F8E"/>
<path fill-rule="evenodd" clip-rule="evenodd" d="M12.4978 16.2338V7.83511C12.4978 5.08572 10.324 2.85689 7.64205 2.85689C4.96043 2.85689 2.78655 5.08565 2.78655 7.8351V16.1604C4.24696 16.9801 5.92224 17.4456 7.70872 17.4456C9.44133 17.4456 11.0692 17.0077 12.4978 16.2338ZM0 17.7215C2.16039 19.3443 4.8253 20.3025 7.70872 20.3025C10.5331 20.3025 13.1482 19.3831 15.2844 17.8202V7.83511C15.2844 3.5079 11.863 0 7.64205 0C3.42141 0 0 3.50789 0 7.8351V17.7215Z" transform="translate(0 0.139313)" fill="#2D3142"/>
</g>
<path d="M8.03664 8.08C9.36997 8.08 10.4433 8.48 11.2566 9.28C12.0833 10.08 12.4966 11.2667 12.4966 12.84V19H9.37664V13.32C9.37664 12.4667 9.18997 11.8333 8.81664 11.42C8.44331 10.9933 7.90331 10.78 7.19664 10.78C6.40997 10.78 5.78331 11.0267 5.31664 11.52C4.84997 12 4.61664 12.72 4.61664 13.68V19H1.49664V8.24H4.47664V9.5C4.88997 9.04667 5.40331 8.7 6.01664 8.46C6.62997 8.20667 7.30331 8.08 8.03664 8.08ZM25.982 13.66C25.982 13.7 25.962 13.98 25.922 14.5H17.782C17.9286 15.1667 18.2753 15.6933 18.822 16.08C19.3686 16.4667 20.0486 16.66 20.862 16.66C21.422 16.66 21.9153 16.58 22.342 16.42C22.782 16.2467 23.1886 15.98 23.562 15.62L25.222 17.42C24.2086 18.58 22.7286 19.16 20.782 19.16C19.5686 19.16 18.4953 18.9267 17.562 18.46C16.6286 17.98 15.9086 17.32 15.402 16.48C14.8953 15.64 14.642 14.6867 14.642 13.62C14.642 12.5667 14.8886 11.62 15.382 10.78C15.8886 9.92667 16.5753 9.26667 17.442 8.8C18.322 8.32 19.302 8.08 20.382 8.08C21.4353 8.08 22.3886 8.30667 23.242 8.76C24.0953 9.21333 24.762 9.86667 25.242 10.72C25.7353 11.56 25.982 12.54 25.982 13.66ZM20.402 10.44C19.6953 10.44 19.102 10.64 18.622 11.04C18.142 11.44 17.8486 11.9867 17.742 12.68H23.042C22.9353 12 22.642 11.46 22.162 11.06C21.682 10.6467 21.0953 10.44 20.402 10.44ZM33.1791 19.16C32.0458 19.16 31.0258 18.9267 30.1191 18.46C29.2258 17.98 28.5258 17.32 28.0191 16.48C27.5125 15.64 27.2591 14.6867 27.2591 13.62C27.2591 12.5533 27.5125 11.6 28.0191 10.76C28.5258 9.92 29.2258 9.26667 30.1191 8.8C31.0258 8.32 32.0458 8.08 33.1791 8.08C34.3125 8.08 35.3258 8.32 36.2191 8.8C37.1125 9.26667 37.8125 9.92 38.3191 10.76C38.8258 11.6 39.0791 12.5533 39.0791 13.62C39.0791 14.6867 38.8258 15.64 38.3191 16.48C37.8125 17.32 37.1125 17.98 36.2191 18.46C35.3258 18.9267 34.3125 19.16 33.1791 19.16ZM33.1791 16.6C33.9791 16.6 34.6325 16.3333 35.1391 15.8C35.6591 15.2533 35.9191 14.5267 35.9191 13.62C35.9191 12.7133 35.6591 11.9933 35.1391 11.46C34.6325 10.9133 33.9791 10.64 33.1791 10.64C32.3791 10.64 31.7191 10.9133 31.1991 11.46C30.6791 11.9933 30.4191 12.7133 30.4191 13.62C30.4191 14.5267 30.6791 15.2533 31.1991 15.8C31.7191 16.3333 32.3791 16.6 33.1791 16.6ZM44.7846 19.16C43.8913 19.16 43.0179 19.0533 42.1646 18.84C41.3113 18.6133 40.6313 18.3333 40.1246 18L41.1646 15.76C41.6446 16.0667 42.2246 16.32 42.9046 16.52C43.5846 16.7067 44.2513 16.8 44.9046 16.8C46.2246 16.8 46.8846 16.4733 46.8846 15.82C46.8846 15.5133 46.7046 15.2933 46.3446 15.16C45.9846 15.0267 45.4313 14.9133 44.6846 14.82C43.8046 14.6867 43.0779 14.5333 42.5046 14.36C41.9313 14.1867 41.4313 13.88 41.0046 13.44C40.5913 13 40.3846 12.3733 40.3846 11.56C40.3846 10.88 40.5779 10.28 40.9646 9.76C41.3646 9.22667 41.9379 8.81333 42.6846 8.52C43.4446 8.22667 44.3379 8.08 45.3646 8.08C46.1246 8.08 46.8779 8.16667 47.6246 8.34C48.3846 8.5 49.0113 8.72667 49.5046 9.02L48.4646 11.24C47.5179 10.7067 46.4846 10.44 45.3646 10.44C44.6979 10.44 44.1979 10.5333 43.8646 10.72C43.5313 10.9067 43.3646 11.1467 43.3646 11.44C43.3646 11.7733 43.5446 12.0067 43.9046 12.14C44.2646 12.2733 44.8379 12.4 45.6246 12.52C46.5046 12.6667 47.2246 12.8267 47.7846 13C48.3446 13.16 48.8313 13.46 49.2446 13.9C49.6579 14.34 49.8646 14.9533 49.8646 15.74C49.8646 16.4067 49.6646 17 49.2646 17.52C48.8646 18.04 48.2779 18.4467 47.5046 18.74C46.7446 19.02 45.8379 19.16 44.7846 19.16ZM56.1296 8.08C57.7963 8.08 59.0763 8.48 59.9696 9.28C60.8629 10.0667 61.3096 11.26 61.3096 12.86V19H58.3896V17.66C57.8029 18.66 56.7096 19.16 55.1096 19.16C54.2829 19.16 53.5629 19.02 52.9496 18.74C52.3496 18.46 51.8896 18.0733 51.5696 17.58C51.2496 17.0867 51.0896 16.5267 51.0896 15.9C51.0896 14.9 51.4629 14.1133 52.2096 13.54C52.9696 12.9667 54.1363 12.68 55.7096 12.68H58.1896C58.1896 12 57.9829 11.48 57.5696 11.12C57.1563 10.7467 56.5363 10.56 55.7096 10.56C55.1363 10.56 54.5696 10.6533 54.0096 10.84C53.4629 11.0133 52.9963 11.2533 52.6096 11.56L51.4896 9.38C52.0763 8.96667 52.7763 8.64667 53.5896 8.42C54.4163 8.19333 55.2629 8.08 56.1296 8.08ZM55.8896 17.06C56.4229 17.06 56.8963 16.94 57.3096 16.7C57.7229 16.4467 58.0163 16.08 58.1896 15.6V14.5H56.0496C54.7696 14.5 54.1296 14.92 54.1296 15.76C54.1296 16.16 54.2829 16.48 54.5896 16.72C54.9096 16.9467 55.3429 17.06 55.8896 17.06Z" transform="translate(47 4)" fill="#2D3142"/>
<path d="M69.3334 19.16C68.1867 19.16 67.1534 18.9267 66.2334 18.46C65.3267 17.98 64.6134 17.32 64.0934 16.48C63.5867 15.64 63.3334 14.6867 63.3334 13.62C63.3334 12.5533 63.5867 11.6 64.0934 10.76C64.6134 9.92 65.3267 9.26667 66.2334 8.8C67.1534 8.32 68.1867 8.08 69.3334 8.08C70.4667 8.08 71.4534 8.32 72.2934 8.8C73.1467 9.26667 73.7667 9.94 74.1534 10.82L71.7334 12.12C71.1734 11.1333 70.3667 10.64 69.3134 10.64C68.5 10.64 67.8267 10.9067 67.2934 11.44C66.76 11.9733 66.4934 12.7 66.4934 13.62C66.4934 14.54 66.76 15.2667 67.2934 15.8C67.8267 16.3333 68.5 16.6 69.3134 16.6C70.38 16.6 71.1867 16.1067 71.7334 15.12L74.1534 16.44C73.7667 17.2933 73.1467 17.96 72.2934 18.44C71.4534 18.92 70.4667 19.16 69.3334 19.16ZM80.933 19.16C79.7997 19.16 78.7797 18.9267 77.873 18.46C76.9797 17.98 76.2797 17.32 75.773 16.48C75.2664 15.64 75.013 14.6867 75.013 13.62C75.013 12.5533 75.2664 11.6 75.773 10.76C76.2797 9.92 76.9797 9.26667 77.873 8.8C78.7797 8.32 79.7997 8.08 80.933 8.08C82.0664 8.08 83.0797 8.32 83.973 8.8C84.8664 9.26667 85.5664 9.92 86.073 10.76C86.5797 11.6 86.833 12.5533 86.833 13.62C86.833 14.6867 86.5797 15.64 86.073 16.48C85.5664 17.32 84.8664 17.98 83.973 18.46C83.0797 18.9267 82.0664 19.16 80.933 19.16ZM80.933 16.6C81.733 16.6 82.3864 16.3333 82.893 15.8C83.413 15.2533 83.673 14.5267 83.673 13.62C83.673 12.7133 83.413 11.9933 82.893 11.46C82.3864 10.9133 81.733 10.64 80.933 10.64C80.133 10.64 79.473 10.9133 78.953 11.46C78.433 11.9933 78.173 12.7133 78.173 13.62C78.173 14.5267 78.433 15.2533 78.953 15.8C79.473 16.3333 80.133 16.6 80.933 16.6ZM99.8785 4.16V19H96.8985V17.76C96.1252 18.6933 95.0052 19.16 93.5385 19.16C92.5252 19.16 91.6052 18.9333 90.7785 18.48C89.9652 18.0267 89.3252 17.38 88.8585 16.54C88.3918 15.7 88.1585 14.7267 88.1585 13.62C88.1585 12.5133 88.3918 11.54 88.8585 10.7C89.3252 9.86 89.9652 9.21333 90.7785 8.76C91.6052 8.30667 92.5252 8.08 93.5385 8.08C94.9118 8.08 95.9852 8.51333 96.7585 9.38V4.16H99.8785ZM94.0785 16.6C94.8652 16.6 95.5185 16.3333 96.0385 15.8C96.5585 15.2533 96.8185 14.5267 96.8185 13.62C96.8185 12.7133 96.5585 11.9933 96.0385 11.46C95.5185 10.9133 94.8652 10.64 94.0785 10.64C93.2785 10.64 92.6185 10.9133 92.0985 11.46C91.5785 11.9933 91.3185 12.7133 91.3185 13.62C91.3185 14.5267 91.5785 15.2533 92.0985 15.8C92.6185 16.3333 93.2785 16.6 94.0785 16.6ZM113.306 13.66C113.306 13.7 113.286 13.98 113.246 14.5H105.106C105.253 15.1667 105.6 15.6933 106.146 16.08C106.693 16.4667 107.373 16.66 108.186 16.66C108.746 16.66 109.24 16.58 109.666 16.42C110.106 16.2467 110.513 15.98 110.886 15.62L112.546 17.42C111.533 18.58 110.053 19.16 108.106 19.16C106.893 19.16 105.82 18.9267 104.886 18.46C103.953 17.98 103.233 17.32 102.726 16.48C102.22 15.64 101.966 14.6867 101.966 13.62C101.966 12.5667 102.213 11.62 102.706 10.78C103.213 9.92667 103.9 9.26667 104.766 8.8C105.646 8.32 106.626 8.08 107.706 8.08C108.76 8.08 109.713 8.30667 110.566 8.76C111.42 9.21333 112.086 9.86667 112.566 10.72C113.06 11.56 113.306 12.54 113.306 13.66ZM107.726 10.44C107.02 10.44 106.426 10.64 105.946 11.04C105.466 11.44 105.173 11.9867 105.066 12.68H110.366C110.26 12 109.966 11.46 109.486 11.06C109.006 10.6467 108.42 10.44 107.726 10.44Z" transform="translate(47 4)" fill="#FF4F8E"/>
</svg>
